<?xml version="1.0" encoding="UTF-8" standalone="no"?>
<!DOCTYPE svg PUBLIC "-//W3C//DTD SVG 1.1//EN" "http://www.w3.org/Graphics/SVG/1.1/DTD/svg11.dtd">
<svg width="100%" height="100%" viewBox="0 0 1001 164" version="1.1" xmlns="http://www.w3.org/2000/svg" xmlns:xlink="http://www.w3.org/1999/xlink" xml:space="preserve" xmlns:serif="http://www.serif.com/" style="fill-rule:evenodd;clip-rule:evenodd;stroke-linejoin:round;stroke-miterlimit:2;">
    <g id="logo" transform="matrix(2.78408,0,0,2.78408,4.88805e-05,-2.04439)">
        <g id="logo_department">
            <g id="logo_single-white-print-cmyk-copy-7">
                <path id="Fill-1" d="M60.703,1.365L66.963,1.365L66.963,3.254L65.093,3.254L65.093,10.396C65.093,11.468 65.072,12.476 65.639,13.401C66.185,14.282 67.11,14.66 68.138,14.66C68.663,14.66 69.021,14.555 69.504,14.345C70.281,14.03 70.722,13.149 70.953,12.392C71.143,11.699 71.1,10.88 71.1,10.186L71.1,3.254L69.252,3.254L69.252,1.365L75.238,1.365L75.238,3.254L73.726,3.254L73.726,9.934C73.726,11.069 73.789,12.371 73.326,13.443C72.865,14.492 72.088,15.375 71.1,15.942C70.302,16.425 68.811,16.656 67.866,16.656C66.942,16.656 65.597,16.383 64.799,15.942C63.916,15.48 63.265,14.723 62.803,13.862C62.195,12.77 62.216,11.531 62.216,10.312L62.216,3.254L60.703,3.254L60.703,1.365" style="fill:#fffffe;"/>
                <path id="Fill-2" d="M79.96,7.057C80.675,5.628 81.746,4.956 83.322,4.956C85.043,4.956 86.346,6.028 86.598,7.057C86.745,7.645 86.745,8.086 86.745,8.569L86.745,14.618L88.132,14.618L88.132,16.404L82.649,16.404L82.649,14.618L83.952,14.618L83.952,9.598C83.952,9.052 83.973,8.611 83.805,8.065C83.616,7.393 83.049,6.889 82.313,6.889C80.275,6.889 80.149,8.8 80.149,10.354L80.149,14.618L81.494,14.618L81.494,16.404L75.886,16.404L75.886,14.618L77.356,14.618L77.356,7.015L75.886,7.015L75.886,5.229L79.96,5.229L79.96,7.057" style="fill:#fffffe;"/>
                <path id="Fill-3" d="M90.959,3.529L93.752,3.529L93.752,0.965L90.959,0.965L90.959,3.529ZM89.468,16.404L89.468,14.618L90.959,14.618L90.959,7.015L89.468,7.015L89.468,5.229L93.753,5.229L93.753,14.618L95.056,14.618L95.056,16.404L89.468,16.404Z" style="fill:#fffffe;"/>
                <path id="Fill-4" d="M95.581,5.229L100.832,5.229L100.832,7.015L99.446,7.015L101.526,14.135L101.547,14.135L103.9,7.015L102.492,7.015L102.492,5.229L107.407,5.229L107.407,7.015L106.546,7.015L103.248,16.404L99.782,16.404L96.463,7.015L95.581,7.015L95.581,5.229" style="fill:#fffffe;"/>
                <path id="Fill-5" d="M115.69,9.766C115.669,8.506 115.164,6.7 113.568,6.7C111.803,6.7 111.237,8.296 111.111,9.766L115.69,9.766ZM111.048,11.384C111.027,12.981 111.698,14.828 113.61,14.828C114.723,14.828 115.501,14.072 115.69,13.002L118.357,13.002C118.168,15.459 115.732,16.656 113.463,16.656C112.748,16.656 111.782,16.425 111.132,16.131C110.396,15.795 109.913,15.375 109.43,14.723C108.548,13.589 108.211,12.119 108.211,10.712C108.211,7.645 109.955,4.956 113.337,4.956C114.828,4.956 116.236,5.355 117.264,6.448C118.168,7.414 118.441,8.989 118.504,10.249C118.525,10.586 118.567,10.901 118.525,11.216C118.525,11.279 118.504,11.321 118.504,11.384L111.048,11.384Z" style="fill:#fffffe;"/>
                <path id="Fill-6" d="M123.726,7.603C124.167,5.649 125.491,4.851 127.444,5.04L127.444,7.771C127.129,7.687 126.792,7.603 126.456,7.603C125.428,7.603 124.524,8.233 124.167,9.178C123.894,9.934 123.894,10.964 123.894,11.741L123.894,14.618L125.68,14.618L125.68,16.404L119.63,16.404L119.63,14.618L121.1,14.618L121.1,7.015L119.63,7.015L119.63,5.229L123.726,5.229L123.726,7.603" style="fill:#fffffe;"/>
                <path id="Fill-7" d="M135.133,8.821C135.007,7.624 134.566,6.637 133.222,6.637C132.319,6.637 131.478,7.036 131.478,8.065C131.478,8.422 131.583,8.653 131.815,8.926C132.004,9.073 132.235,9.136 132.445,9.241C133.642,9.577 135.889,9.745 136.73,10.796C137.297,11.489 137.507,12.14 137.507,13.023C137.528,13.673 137.234,14.681 136.814,15.27C136.309,15.963 135.091,16.656 133.516,16.656C132.466,16.656 131.331,16.173 130.764,15.27L130.764,16.404L128.747,16.404L128.747,12.518L130.932,12.518C131.016,13.904 131.625,14.87 133.117,14.87C133.894,14.87 134.692,14.324 134.692,13.485C134.692,13.065 134.566,12.56 134.146,12.35C132.886,11.741 131.352,11.888 130.155,11.09C129.125,10.375 128.726,9.409 128.726,8.17C128.621,7.246 129.167,6.574 129.462,6.154C129.882,5.565 131.268,4.956 132.571,4.956C133.537,4.956 134.629,5.376 135.217,6.154L135.217,5.229L137.192,5.229L137.192,8.821L135.133,8.821" style="fill:#fffffe;"/>
                <path id="Fill-8" d="M140.416,3.529L143.21,3.529L143.21,0.965L140.416,0.965L140.416,3.529ZM138.925,16.404L138.925,14.618L140.416,14.618L140.416,7.015L138.925,7.015L138.925,5.229L143.21,5.229L143.21,14.618L144.512,14.618L144.512,16.404L138.925,16.404Z" style="fill:#fffffe;"/>
                <path id="Fill-9" d="M152.75,13.464C152.75,14.786 152.329,16.005 150.943,16.446C150.712,16.53 150.018,16.656 149.787,16.656C149.283,16.656 148.989,16.572 148.506,16.446C147.54,16.152 147.015,15.48 146.805,14.534C146.7,14.072 146.721,13.086 146.721,12.581L146.721,7.015L145.061,7.015L145.061,5.229L146.721,5.229L146.721,3.317L149.514,2.373L149.514,5.229L152.308,5.229L152.308,7.015L149.514,7.015L149.514,14.009C149.514,14.219 149.64,14.639 149.85,14.723C151.132,15.249 151.048,13.464 151.027,12.707L152.75,12.707L152.75,13.464" style="fill:#fffffe;"/>
                <path id="Fill-10" d="M153.662,5.229L159.018,5.229L159.018,7.015L157.57,7.015L159.712,12.918L159.817,13.191L161.959,7.015L160.573,7.015L160.573,5.229L165.53,5.229L165.53,7.015L164.648,7.015L160.657,17.097C159.985,18.841 159.333,20.08 157.233,20.08C156.666,20.08 156.099,20.08 155.553,19.975L155.553,18.043C155.931,18.064 156.309,18.106 156.687,18.106C157.696,18.106 157.905,17.77 158.262,16.908L158.409,16.551L154.565,7.015L153.662,7.015L153.662,5.229" style="fill:#fffffe;"/>
                <path id="Fill-11" d="M173.893,10.796C173.893,11.72 173.977,12.56 174.418,13.401C174.817,14.198 175.531,14.807 176.476,14.807C177.484,14.807 178.177,14.093 178.556,13.233C178.871,12.497 178.955,11.531 178.955,10.754C178.955,9.829 178.871,9.031 178.451,8.191C178.051,7.414 177.379,6.805 176.434,6.805C174.418,6.805 173.893,9.241 173.893,10.796ZM172.254,14.807C171.329,13.652 170.972,12.182 170.972,10.733C170.972,9.157 171.351,7.729 172.443,6.553C173.43,5.502 174.922,4.956 176.35,4.956C179.942,4.956 181.874,7.456 181.874,10.838C181.874,14.072 179.879,16.656 176.434,16.656C174.922,16.656 173.199,15.984 172.254,14.807Z" style="fill:#fffffe;"/>
                <path id="Fill-12" d="M182.74,7.015L182.74,5.229L184.378,5.229L184.378,4.263C184.378,3.233 184.588,2.142 185.513,1.554C186.416,0.944 187.277,0.734 188.37,0.734C188.895,0.734 189.419,0.86 189.944,1.007L189.944,2.897C189.566,2.834 189.21,2.771 188.831,2.771C188.265,2.771 187.803,2.897 187.402,3.338C187.15,3.675 187.172,4.452 187.172,4.809L187.172,5.229L189.083,5.229L189.083,7.015L187.172,7.015L187.172,14.618L189.021,14.618L189.021,16.404L182.866,16.404L182.866,14.618L184.378,14.618L184.378,7.015L182.74,7.015" style="fill:#fffffe;"/>
                <path id="Fill-13" d="M196.458,16.404L196.458,14.513L198.202,14.513L198.202,3.254L196.458,3.254L196.458,1.365L202.046,1.365L207.633,13.191L207.654,13.191L207.654,3.254L205.889,3.254L205.889,1.365L211.814,1.365L211.814,3.254L210.174,3.254L210.174,16.404L206.457,16.404L200.743,4.263L200.723,4.263L200.723,14.513L202.382,14.513L202.382,16.404L196.458,16.404" style="fill:#fffffe;"/>
                <path id="Fill-14" d="M219.966,9.766C219.946,8.506 219.442,6.7 217.845,6.7C216.081,6.7 215.513,8.296 215.387,9.766L219.966,9.766ZM215.324,11.384C215.303,12.981 215.976,14.828 217.886,14.828C219,14.828 219.778,14.072 219.966,13.002L222.635,13.002C222.445,15.459 220.008,16.656 217.74,16.656C217.026,16.656 216.06,16.425 215.408,16.131C214.673,15.795 214.19,15.375 213.707,14.723C212.824,13.589 212.489,12.119 212.489,10.712C212.489,7.645 214.233,4.956 217.614,4.956C219.106,4.956 220.513,5.355 221.542,6.448C222.445,7.414 222.719,8.989 222.782,10.249C222.803,10.586 222.844,10.901 222.803,11.216C222.803,11.279 222.782,11.321 222.782,11.384L215.324,11.384Z" style="fill:#fffffe;"/>
                <path id="Fill-15" d="M228.812,5.229L228.812,7.015L227.321,7.015L228.916,14.24L228.938,14.24L231.312,5.229L234.714,5.229L236.794,14.24L236.815,14.24L238.706,7.015L237.278,7.015L237.278,5.229L242.235,5.229L242.235,7.015L241.205,7.015L238.516,16.404L234.988,16.404L232.971,8.023L230.681,16.404L227.152,16.404L224.463,7.015L223.477,7.015L223.477,5.229L228.812,5.229" style="fill:#fffffe;"/>
                <path id="Fill-16" d="M247.658,16.404L247.658,14.513L249.381,14.513L249.381,3.254L247.658,3.254L247.658,1.365L254.086,1.365L254.086,3.254L252.258,3.254L252.258,7.834L258.349,7.834L258.349,3.254L256.522,3.254L256.522,1.365L262.97,1.365L262.97,3.254L261.227,3.254L261.227,14.513L262.97,14.513L262.97,16.404L256.522,16.404L256.522,14.513L258.349,14.513L258.349,9.724L252.258,9.724L252.258,14.513L254.086,14.513L254.086,16.404L247.658,16.404" style="fill:#fffffe;"/>
                <path id="Fill-17" d="M269.886,11.237C268.457,11.237 267.154,11.573 267.154,13.275C267.154,14.135 267.722,14.828 268.625,14.828C270.662,14.828 271.145,12.876 271.208,11.237L269.886,11.237ZM271.418,14.618C270.788,16.026 269.444,16.656 267.931,16.656C266.377,16.656 264.865,15.774 264.613,14.618C264.381,13.883 264.36,13.506 264.36,13.17C264.36,12.224 264.739,11.279 265.453,10.649C265.999,10.144 267.26,9.703 267.994,9.682C268.519,9.661 269.086,9.577 269.612,9.577C270.116,9.577 270.62,9.64 271.124,9.661C271.27,8.317 271.082,6.637 269.339,6.637C268.121,6.637 267.533,7.477 267.554,8.653L264.781,8.653C264.844,5.923 266.881,4.956 269.339,4.956C271.082,4.956 272.721,5.418 273.476,7.141C273.644,7.519 273.686,7.75 273.75,8.191C273.812,8.674 273.834,9.136 273.834,9.619L273.834,14.639L275.283,14.639L275.283,16.404L271.418,16.404L271.418,14.618Z" style="fill:#fffffe;"/>
                <path id="Fill-18" d="M280.62,7.057C281.335,5.628 282.511,4.956 284.128,4.956C285.62,4.956 286.712,5.523 287.236,7.057C287.846,5.628 289.044,4.956 290.493,4.956C292.089,4.956 293.224,5.691 293.77,7.057C294.042,7.75 293.958,8.254 293.958,8.8L293.958,14.618L295.324,14.618L295.324,16.404L289.841,16.404L289.841,14.618L291.165,14.618L291.165,9.64C291.165,8.506 291.018,7.015 289.505,7.015C288.687,7.015 288.099,7.393 287.74,8.149C287.384,8.884 287.384,9.514 287.384,10.312L287.384,14.618L288.687,14.618L288.687,16.404L283.31,16.404L283.31,14.618L284.591,14.618L284.591,9.451C284.591,8.821 284.591,8.338 284.317,7.75C284.107,7.309 283.562,7.015 283.078,7.015C281.902,7.015 281.271,7.729 280.957,8.779C280.81,9.325 280.81,9.85 280.81,10.417L280.81,14.618L282.154,14.618L282.154,16.404L276.546,16.404L276.546,14.618L278.016,14.618L278.016,7.015L276.546,7.015L276.546,5.229L280.62,5.229L280.62,7.057" style="fill:#fffffe;"/>
                <path id="Fill-19" d="M300.647,8.127C300.163,9.052 299.975,9.955 299.975,10.859C299.975,12.434 300.583,14.765 302.558,14.765C304.574,14.765 305.057,12.56 305.057,10.964C305.057,9.367 304.742,6.784 302.642,6.784C301.738,6.784 300.983,7.414 300.647,8.127ZM299.975,7.12C300.751,5.607 301.948,4.956 303.272,4.956C304.973,4.956 306.108,5.649 307.116,7.12C307.557,7.771 307.935,9.157 307.935,10.67C307.935,12.35 307.767,13.401 306.885,14.849C306.17,16.026 304.658,16.656 303.314,16.656C302.075,16.656 300.983,16.11 300.143,14.723L300.143,18.022L301.717,18.022L301.717,19.806L295.878,19.806L295.878,18.022L297.349,18.022L297.349,7.015L295.878,7.015L295.878,5.229L299.975,5.229L299.975,7.12Z" style="fill:#fffffe;"/>
                <path id="Fill-20" d="M316.052,8.821C315.926,7.624 315.485,6.637 314.141,6.637C313.237,6.637 312.397,7.036 312.397,8.065C312.397,8.422 312.501,8.653 312.733,8.926C312.921,9.073 313.153,9.136 313.363,9.241C314.561,9.577 316.808,9.745 317.648,10.796C318.215,11.489 318.426,12.14 318.426,13.023C318.447,13.673 318.152,14.681 317.732,15.27C317.228,15.963 316.01,16.656 314.434,16.656C313.384,16.656 312.249,16.173 311.683,15.27L311.683,16.404L309.666,16.404L309.666,12.518L311.851,12.518C311.935,13.904 312.544,14.87 314.035,14.87C314.813,14.87 315.61,14.324 315.61,13.485C315.61,13.065 315.485,12.56 315.065,12.35C313.805,11.741 312.271,11.888 311.073,11.09C310.044,10.375 309.645,9.409 309.645,8.17C309.54,7.246 310.086,6.574 310.38,6.154C310.8,5.565 312.187,4.956 313.489,4.956C314.455,4.956 315.547,5.376 316.136,6.154L316.136,5.229L318.11,5.229L318.11,8.821L316.052,8.821" style="fill:#fffffe;"/>
                <path id="Fill-21" d="M319.725,16.404L319.725,14.618L321.154,14.618L321.154,2.897L319.725,2.897L319.725,1.112L323.948,1.112L323.948,6.679C324.724,5.439 325.669,4.956 327.14,4.956C328.065,4.956 329.177,5.229 329.807,5.944C330.48,6.7 330.585,7.624 330.585,8.59L330.585,14.618L331.992,14.618L331.992,16.404L326.425,16.404L326.425,14.618L327.791,14.618L327.791,9.598C327.791,9.178 327.749,8.737 327.686,8.317C327.623,7.519 326.972,6.868 326.153,6.868C325.144,6.868 324.577,7.393 324.241,8.296C323.926,9.073 323.948,9.85 323.948,10.67L323.948,14.618L325.313,14.618L325.313,16.404L319.725,16.404" style="fill:#fffffe;"/>
                <path id="Fill-22" d="M334.81,3.529L337.603,3.529L337.603,0.965L334.81,0.965L334.81,3.529ZM333.318,16.404L333.318,14.618L334.81,14.618L334.81,7.015L333.318,7.015L333.318,5.229L337.603,5.229L337.603,14.618L338.905,14.618L338.905,16.404L333.318,16.404Z" style="fill:#fffffe;"/>
                <path id="Fill-23" d="M344.334,7.603C344.775,5.649 346.097,4.851 348.051,5.04L348.051,7.771C347.737,7.687 347.401,7.603 347.065,7.603C346.035,7.603 345.132,8.233 344.775,9.178C344.502,9.934 344.502,10.964 344.502,11.741L344.502,14.618L346.288,14.618L346.288,16.404L340.238,16.404L340.238,14.618L341.708,14.618L341.708,7.015L340.238,7.015L340.238,5.229L344.334,5.229L344.334,7.603" style="fill:#fffffe;"/>
                <path id="Fill-24" d="M356.443,9.766C356.423,8.506 355.919,6.7 354.322,6.7C352.557,6.7 351.99,8.296 351.864,9.766L356.443,9.766ZM351.801,11.384C351.78,12.981 352.452,14.828 354.363,14.828C355.476,14.828 356.255,14.072 356.443,13.002L359.111,13.002C358.922,15.459 356.485,16.656 354.217,16.656C353.503,16.656 352.536,16.425 351.885,16.131C351.15,15.795 350.666,15.375 350.183,14.723C349.301,13.589 348.966,12.119 348.966,10.712C348.966,7.645 350.709,4.956 354.091,4.956C355.583,4.956 356.989,5.355 358.019,6.448C358.922,7.414 359.195,8.989 359.258,10.249C359.279,10.586 359.32,10.901 359.279,11.216C359.279,11.279 359.258,11.321 359.258,11.384L351.801,11.384Z" style="fill:#fffffe;"/>
                <g id="Group-66" transform="matrix(1,0,0,1,0,1.00043)">
                    <path id="Fill-65" d="M46.731,0.384L0,0.384L0,29.149C-0.007,36.68 2.081,42.697 6.382,47.54C9.831,51.424 14.925,56.182 23.773,58.527L24.199,58.64L24.628,58.527C33.473,56.182 38.568,51.424 42.017,47.54C46.317,42.699 48.405,36.683 48.402,29.148L48.402,0.384L46.731,0.384" style="fill:#fffffe;"/>
                </g>
                <path id="Fill-67" d="M24.201,3.055L1.671,3.055L1.671,30.147C1.666,37.255 3.616,42.908 7.632,47.429C10.964,51.181 15.832,55.694 24.201,57.914C32.569,55.694 37.437,51.181 40.769,47.429C44.786,42.908 46.736,37.255 46.73,30.147L46.73,3.055L24.201,3.055" style="fill:#003591;"/>
                <path id="Fill-68" d="M11.487,44.003C8.307,40.419 6.825,36.018 6.829,30.149L6.829,8.214L24.201,8.214L24.201,52.544C18.009,50.6 14.31,47.179 11.487,44.003" style="fill:#fffffe;"/>
                <path id="Fill-69" d="M11.067,37.512L11.067,14.843L16.149,14.843L19.591,24.884L19.654,24.884L19.654,14.843L24.201,14.843L24.201,37.512L19.275,37.512L15.676,25.769L15.614,25.769L15.614,37.512L11.067,37.512" style="fill:#003591;"/>
                <path id="Fill-70" d="M32.558,14.843L32.558,23.722L28.827,23.722L28.827,14.843L24.201,14.843L24.201,37.512L28.907,37.512L28.907,28.387L32.639,28.387L32.639,37.512L37.334,37.512L37.334,14.843L32.558,14.843" style="fill:#fffffe;"/>
            </g>
            <g transform="matrix(1.08421,0,0,1.3514,-6.80902,-33.6555)">
                <g id="site-name">
                    <g>
                        <g transform="matrix(17.0631,0,0,13.6895,61.0843,52.7098)">
                            <rect x="0.09" y="-0.656" width="0.083" height="0.656" style="fill:#fff;fill-rule:nonzero;"/>
                        </g>
                        <g transform="matrix(17.0631,0,0,13.6895,65.5719,52.7098)">
                            <path d="M0.082,0L0.082,-0.486L0.15,-0.486L0.157,-0.416L0.16,-0.416C0.183,-0.439 0.208,-0.459 0.234,-0.475C0.259,-0.49 0.289,-0.498 0.323,-0.498C0.374,-0.498 0.412,-0.482 0.436,-0.45C0.459,-0.418 0.471,-0.371 0.471,-0.308L0.471,0L0.389,0L0.389,-0.297C0.389,-0.343 0.382,-0.376 0.367,-0.397C0.352,-0.417 0.329,-0.427 0.297,-0.427C0.272,-0.427 0.249,-0.421 0.23,-0.408C0.211,-0.395 0.189,-0.377 0.164,-0.352L0.164,0L0.082,0Z" style="fill:#fff;fill-rule:nonzero;"/>
                        </g>
                        <g transform="matrix(17.0631,0,0,13.6895,74.9054,52.7098)">
                            <path d="M0.096,0L0.096,-0.419L0.03,-0.419L0.03,-0.481L0.096,-0.486L0.096,-0.563C0.096,-0.613 0.108,-0.652 0.131,-0.681C0.154,-0.71 0.189,-0.724 0.238,-0.724C0.253,-0.724 0.268,-0.723 0.282,-0.72C0.295,-0.716 0.308,-0.713 0.319,-0.708L0.301,-0.645C0.283,-0.653 0.265,-0.657 0.246,-0.657C0.201,-0.657 0.178,-0.626 0.178,-0.563L0.178,-0.486L0.281,-0.486L0.281,-0.419L0.178,-0.419L0.178,0L0.096,0Z" style="fill:#fff;fill-rule:nonzero;"/>
                        </g>
                        <g transform="matrix(17.0631,0,0,13.6895,79.7172,52.7098)">
                            <path d="M0.271,0.012C0.241,0.012 0.213,0.006 0.186,-0.005C0.159,-0.016 0.135,-0.033 0.114,-0.055C0.093,-0.076 0.077,-0.103 0.065,-0.135C0.052,-0.166 0.046,-0.202 0.046,-0.242C0.046,-0.283 0.052,-0.319 0.065,-0.351C0.077,-0.382 0.093,-0.409 0.114,-0.431C0.135,-0.453 0.159,-0.47 0.186,-0.481C0.213,-0.492 0.241,-0.498 0.271,-0.498C0.301,-0.498 0.329,-0.492 0.357,-0.481C0.384,-0.47 0.407,-0.453 0.428,-0.431C0.449,-0.409 0.465,-0.382 0.478,-0.351C0.49,-0.319 0.496,-0.283 0.496,-0.242C0.496,-0.202 0.49,-0.166 0.478,-0.135C0.465,-0.103 0.449,-0.076 0.428,-0.055C0.407,-0.033 0.384,-0.016 0.357,-0.005C0.329,0.006 0.301,0.012 0.271,0.012ZM0.271,-0.056C0.292,-0.056 0.311,-0.061 0.328,-0.07C0.345,-0.079 0.36,-0.091 0.373,-0.108C0.385,-0.124 0.394,-0.143 0.401,-0.166C0.408,-0.189 0.411,-0.214 0.411,-0.242C0.411,-0.27 0.408,-0.296 0.401,-0.319C0.394,-0.341 0.385,-0.361 0.373,-0.378C0.36,-0.395 0.345,-0.408 0.328,-0.417C0.311,-0.426 0.292,-0.43 0.271,-0.43C0.25,-0.43 0.231,-0.426 0.214,-0.417C0.197,-0.408 0.182,-0.395 0.17,-0.378C0.157,-0.361 0.148,-0.341 0.141,-0.319C0.134,-0.296 0.131,-0.27 0.131,-0.242C0.131,-0.214 0.134,-0.189 0.141,-0.166C0.148,-0.143 0.157,-0.124 0.17,-0.108C0.182,-0.091 0.197,-0.079 0.214,-0.07C0.231,-0.061 0.25,-0.056 0.271,-0.056Z" style="fill:#fff;fill-rule:nonzero;"/>
                        </g>
                        <g transform="matrix(17.0631,0,0,13.6895,88.9654,52.7098)">
                            <path d="M0.082,0L0.082,-0.486L0.15,-0.486L0.157,-0.398L0.16,-0.398C0.177,-0.429 0.197,-0.453 0.221,-0.471C0.244,-0.489 0.27,-0.498 0.298,-0.498C0.317,-0.498 0.335,-0.495 0.35,-0.488L0.334,-0.416C0.326,-0.419 0.319,-0.421 0.312,-0.422C0.305,-0.423 0.297,-0.424 0.287,-0.424C0.266,-0.424 0.245,-0.416 0.223,-0.399C0.2,-0.382 0.181,-0.353 0.164,-0.312L0.164,0L0.082,0Z" style="fill:#fff;fill-rule:nonzero;"/>
                        </g>
                        <g transform="matrix(17.0631,0,0,13.6895,94.8862,52.7098)">
                            <path d="M0.082,0L0.082,-0.486L0.15,-0.486L0.157,-0.416L0.16,-0.416C0.181,-0.439 0.205,-0.459 0.23,-0.475C0.255,-0.49 0.282,-0.498 0.311,-0.498C0.348,-0.498 0.378,-0.49 0.399,-0.474C0.42,-0.457 0.435,-0.434 0.445,-0.405C0.47,-0.433 0.496,-0.456 0.522,-0.473C0.547,-0.49 0.575,-0.498 0.605,-0.498C0.655,-0.498 0.692,-0.482 0.717,-0.45C0.741,-0.418 0.753,-0.371 0.753,-0.308L0.753,0L0.671,0L0.671,-0.297C0.671,-0.343 0.664,-0.376 0.649,-0.397C0.634,-0.417 0.612,-0.427 0.581,-0.427C0.544,-0.427 0.504,-0.402 0.459,-0.352L0.459,0L0.377,0L0.377,-0.297C0.377,-0.343 0.37,-0.376 0.355,-0.397C0.34,-0.417 0.317,-0.427 0.286,-0.427C0.249,-0.427 0.209,-0.402 0.164,-0.352L0.164,0L0.082,0Z" style="fill:#fff;fill-rule:nonzero;"/>
                        </g>
                        <g transform="matrix(17.0631,0,0,13.6895,109.032,52.7098)">
                            <path d="M0.194,0.012C0.153,0.012 0.12,0 0.093,-0.024C0.066,-0.048 0.052,-0.082 0.052,-0.126C0.052,-0.179 0.076,-0.22 0.123,-0.249C0.17,-0.277 0.246,-0.297 0.35,-0.308C0.35,-0.323 0.349,-0.338 0.346,-0.353C0.343,-0.368 0.337,-0.381 0.33,-0.392C0.323,-0.403 0.313,-0.413 0.3,-0.42C0.287,-0.427 0.27,-0.43 0.25,-0.43C0.222,-0.43 0.196,-0.425 0.171,-0.414C0.146,-0.403 0.124,-0.391 0.105,-0.378L0.073,-0.435C0.096,-0.45 0.123,-0.464 0.156,-0.478C0.189,-0.491 0.225,-0.498 0.264,-0.498C0.323,-0.498 0.366,-0.48 0.393,-0.444C0.42,-0.407 0.433,-0.359 0.433,-0.298L0.433,0L0.365,0L0.358,-0.058L0.355,-0.058C0.332,-0.039 0.307,-0.022 0.28,-0.009C0.253,0.005 0.225,0.012 0.194,0.012ZM0.218,-0.054C0.241,-0.054 0.263,-0.059 0.284,-0.071C0.305,-0.082 0.327,-0.098 0.35,-0.119L0.35,-0.254C0.309,-0.249 0.275,-0.242 0.248,-0.235C0.22,-0.228 0.198,-0.219 0.181,-0.209C0.164,-0.199 0.151,-0.188 0.144,-0.175C0.136,-0.162 0.132,-0.147 0.132,-0.132C0.132,-0.104 0.14,-0.084 0.157,-0.072C0.174,-0.06 0.194,-0.054 0.218,-0.054Z" style="fill:#fff;fill-rule:nonzero;"/>
                        </g>
                        <g transform="matrix(17.0631,0,0,13.6895,117.392,52.7098)">
                            <path d="M0.235,0.012C0.209,0.012 0.187,0.008 0.17,0C0.152,-0.008 0.138,-0.019 0.127,-0.033C0.116,-0.047 0.108,-0.064 0.103,-0.084C0.098,-0.104 0.096,-0.126 0.096,-0.15L0.096,-0.419L0.024,-0.419L0.024,-0.481L0.1,-0.486L0.11,-0.622L0.179,-0.622L0.179,-0.486L0.31,-0.486L0.31,-0.419L0.179,-0.419L0.179,-0.149C0.179,-0.119 0.185,-0.096 0.196,-0.08C0.206,-0.063 0.226,-0.055 0.254,-0.055C0.263,-0.055 0.272,-0.056 0.282,-0.059C0.292,-0.062 0.301,-0.065 0.309,-0.068L0.325,-0.006C0.312,-0.001 0.297,0.003 0.282,0.007C0.266,0.01 0.25,0.012 0.235,0.012Z" style="fill:#fff;fill-rule:nonzero;"/>
                        </g>
                        <g transform="matrix(17.0631,0,0,13.6895,123.16,52.7098)">
                            <path d="M0.082,0L0.082,-0.486L0.164,-0.486L0.164,0L0.082,0ZM0.124,-0.586C0.108,-0.586 0.095,-0.591 0.084,-0.601C0.073,-0.611 0.067,-0.624 0.067,-0.639C0.067,-0.655 0.073,-0.668 0.084,-0.678C0.095,-0.687 0.108,-0.692 0.124,-0.692C0.14,-0.692 0.154,-0.687 0.165,-0.678C0.175,-0.668 0.181,-0.655 0.181,-0.639C0.181,-0.624 0.175,-0.611 0.165,-0.601C0.154,-0.591 0.14,-0.586 0.124,-0.586Z" style="fill:#fff;fill-rule:nonzero;"/>
                        </g>
                        <g transform="matrix(17.0631,0,0,13.6895,127.357,52.7098)">
                            <path d="M0.271,0.012C0.241,0.012 0.213,0.006 0.186,-0.005C0.159,-0.016 0.135,-0.033 0.114,-0.055C0.093,-0.076 0.077,-0.103 0.065,-0.135C0.052,-0.166 0.046,-0.202 0.046,-0.242C0.046,-0.283 0.052,-0.319 0.065,-0.351C0.077,-0.382 0.093,-0.409 0.114,-0.431C0.135,-0.453 0.159,-0.47 0.186,-0.481C0.213,-0.492 0.241,-0.498 0.271,-0.498C0.301,-0.498 0.329,-0.492 0.357,-0.481C0.384,-0.47 0.407,-0.453 0.428,-0.431C0.449,-0.409 0.465,-0.382 0.478,-0.351C0.49,-0.319 0.496,-0.283 0.496,-0.242C0.496,-0.202 0.49,-0.166 0.478,-0.135C0.465,-0.103 0.449,-0.076 0.428,-0.055C0.407,-0.033 0.384,-0.016 0.357,-0.005C0.329,0.006 0.301,0.012 0.271,0.012ZM0.271,-0.056C0.292,-0.056 0.311,-0.061 0.328,-0.07C0.345,-0.079 0.36,-0.091 0.373,-0.108C0.385,-0.124 0.394,-0.143 0.401,-0.166C0.408,-0.189 0.411,-0.214 0.411,-0.242C0.411,-0.27 0.408,-0.296 0.401,-0.319C0.394,-0.341 0.385,-0.361 0.373,-0.378C0.36,-0.395 0.345,-0.408 0.328,-0.417C0.311,-0.426 0.292,-0.43 0.271,-0.43C0.25,-0.43 0.231,-0.426 0.214,-0.417C0.197,-0.408 0.182,-0.395 0.17,-0.378C0.157,-0.361 0.148,-0.341 0.141,-0.319C0.134,-0.296 0.131,-0.27 0.131,-0.242C0.131,-0.214 0.134,-0.189 0.141,-0.166C0.148,-0.143 0.157,-0.124 0.17,-0.108C0.182,-0.091 0.197,-0.079 0.214,-0.07C0.231,-0.061 0.25,-0.056 0.271,-0.056Z" style="fill:#fff;fill-rule:nonzero;"/>
                        </g>
                        <g transform="matrix(17.0631,0,0,13.6895,136.605,52.7098)">
                            <path d="M0.082,0L0.082,-0.486L0.15,-0.486L0.157,-0.416L0.16,-0.416C0.183,-0.439 0.208,-0.459 0.234,-0.475C0.259,-0.49 0.289,-0.498 0.323,-0.498C0.374,-0.498 0.412,-0.482 0.436,-0.45C0.459,-0.418 0.471,-0.371 0.471,-0.308L0.471,0L0.389,0L0.389,-0.297C0.389,-0.343 0.382,-0.376 0.367,-0.397C0.352,-0.417 0.329,-0.427 0.297,-0.427C0.272,-0.427 0.249,-0.421 0.23,-0.408C0.211,-0.395 0.189,-0.377 0.164,-0.352L0.164,0L0.082,0Z" style="fill:#fff;fill-rule:nonzero;"/>
                        </g>
                        <g transform="matrix(17.0631,0,0,13.6895,149.352,52.7098)">
                            <path d="M0.226,0L0.226,-0.586L0.028,-0.586L0.028,-0.656L0.508,-0.656L0.508,-0.586L0.31,-0.586L0.31,0L0.226,0Z" style="fill:#fff;fill-rule:nonzero;"/>
                        </g>
                        <g transform="matrix(17.0631,0,0,13.6895,157.371,52.7098)">
                            <path d="M0.279,0.012C0.246,0.012 0.216,0.006 0.188,-0.006C0.159,-0.017 0.134,-0.034 0.114,-0.056C0.093,-0.077 0.076,-0.104 0.064,-0.135C0.052,-0.166 0.046,-0.202 0.046,-0.242C0.046,-0.282 0.052,-0.318 0.065,-0.35C0.077,-0.381 0.093,-0.408 0.114,-0.43C0.134,-0.452 0.157,-0.469 0.183,-0.481C0.209,-0.492 0.236,-0.498 0.264,-0.498C0.295,-0.498 0.322,-0.493 0.347,-0.482C0.371,-0.471 0.391,-0.456 0.408,-0.436C0.424,-0.416 0.436,-0.392 0.445,-0.364C0.454,-0.336 0.458,-0.305 0.458,-0.27C0.458,-0.261 0.458,-0.253 0.458,-0.245C0.457,-0.236 0.456,-0.229 0.455,-0.223L0.127,-0.223C0.13,-0.171 0.147,-0.13 0.176,-0.1C0.205,-0.069 0.242,-0.054 0.289,-0.054C0.312,-0.054 0.334,-0.057 0.354,-0.065C0.373,-0.071 0.392,-0.081 0.41,-0.092L0.439,-0.038C0.418,-0.025 0.394,-0.013 0.368,-0.003C0.342,0.007 0.312,0.012 0.279,0.012ZM0.126,-0.282L0.386,-0.282C0.386,-0.331 0.376,-0.369 0.355,-0.395C0.333,-0.42 0.304,-0.433 0.266,-0.433C0.249,-0.433 0.232,-0.43 0.217,-0.423C0.201,-0.416 0.187,-0.407 0.174,-0.394C0.161,-0.381 0.151,-0.365 0.143,-0.346C0.134,-0.327 0.129,-0.306 0.126,-0.282Z" style="fill:#fff;fill-rule:nonzero;"/>
                        </g>
                        <g transform="matrix(17.0631,0,0,13.6895,165.835,52.7098)">
                            <path d="M0.274,0.012C0.242,0.012 0.212,0.006 0.184,-0.005C0.156,-0.016 0.132,-0.033 0.112,-0.055C0.091,-0.076 0.075,-0.103 0.064,-0.135C0.052,-0.166 0.046,-0.202 0.046,-0.242C0.046,-0.283 0.052,-0.319 0.065,-0.351C0.078,-0.382 0.095,-0.409 0.116,-0.431C0.137,-0.453 0.162,-0.47 0.191,-0.481C0.219,-0.492 0.249,-0.498 0.28,-0.498C0.312,-0.498 0.339,-0.492 0.362,-0.481C0.385,-0.47 0.405,-0.456 0.422,-0.441L0.38,-0.387C0.366,-0.4 0.351,-0.41 0.336,-0.418C0.32,-0.426 0.302,-0.43 0.283,-0.43C0.261,-0.43 0.241,-0.426 0.222,-0.417C0.203,-0.408 0.187,-0.395 0.174,-0.378C0.161,-0.361 0.15,-0.341 0.143,-0.319C0.135,-0.296 0.131,-0.27 0.131,-0.242C0.131,-0.214 0.135,-0.189 0.142,-0.166C0.149,-0.143 0.16,-0.124 0.173,-0.108C0.186,-0.091 0.201,-0.079 0.22,-0.07C0.239,-0.061 0.259,-0.056 0.281,-0.056C0.304,-0.056 0.325,-0.061 0.344,-0.071C0.363,-0.08 0.38,-0.092 0.395,-0.105L0.431,-0.05C0.409,-0.031 0.385,-0.016 0.358,-0.005C0.331,0.007 0.303,0.012 0.274,0.012Z" style="fill:#fff;fill-rule:nonzero;"/>
                        </g>
                        <g transform="matrix(17.0631,0,0,13.6895,173.615,52.7098)">
                            <path d="M0.082,0L0.082,-0.712L0.164,-0.712L0.164,-0.518L0.161,-0.418C0.184,-0.44 0.209,-0.459 0.234,-0.475C0.259,-0.49 0.289,-0.498 0.323,-0.498C0.374,-0.498 0.412,-0.482 0.436,-0.45C0.459,-0.418 0.471,-0.371 0.471,-0.308L0.471,0L0.389,0L0.389,-0.297C0.389,-0.343 0.382,-0.376 0.367,-0.397C0.352,-0.417 0.329,-0.427 0.297,-0.427C0.272,-0.427 0.249,-0.421 0.23,-0.408C0.211,-0.395 0.189,-0.377 0.164,-0.352L0.164,0L0.082,0Z" style="fill:#fff;fill-rule:nonzero;"/>
                        </g>
                        <g transform="matrix(17.0631,0,0,13.6895,182.898,52.7098)">
                            <path d="M0.082,0L0.082,-0.486L0.15,-0.486L0.157,-0.416L0.16,-0.416C0.183,-0.439 0.208,-0.459 0.234,-0.475C0.259,-0.49 0.289,-0.498 0.323,-0.498C0.374,-0.498 0.412,-0.482 0.436,-0.45C0.459,-0.418 0.471,-0.371 0.471,-0.308L0.471,0L0.389,0L0.389,-0.297C0.389,-0.343 0.382,-0.376 0.367,-0.397C0.352,-0.417 0.329,-0.427 0.297,-0.427C0.272,-0.427 0.249,-0.421 0.23,-0.408C0.211,-0.395 0.189,-0.377 0.164,-0.352L0.164,0L0.082,0Z" style="fill:#fff;fill-rule:nonzero;"/>
                        </g>
                        <g transform="matrix(17.0631,0,0,13.6895,192.231,52.7098)">
                            <path d="M0.271,0.012C0.241,0.012 0.213,0.006 0.186,-0.005C0.159,-0.016 0.135,-0.033 0.114,-0.055C0.093,-0.076 0.077,-0.103 0.065,-0.135C0.052,-0.166 0.046,-0.202 0.046,-0.242C0.046,-0.283 0.052,-0.319 0.065,-0.351C0.077,-0.382 0.093,-0.409 0.114,-0.431C0.135,-0.453 0.159,-0.47 0.186,-0.481C0.213,-0.492 0.241,-0.498 0.271,-0.498C0.301,-0.498 0.329,-0.492 0.357,-0.481C0.384,-0.47 0.407,-0.453 0.428,-0.431C0.449,-0.409 0.465,-0.382 0.478,-0.351C0.49,-0.319 0.496,-0.283 0.496,-0.242C0.496,-0.202 0.49,-0.166 0.478,-0.135C0.465,-0.103 0.449,-0.076 0.428,-0.055C0.407,-0.033 0.384,-0.016 0.357,-0.005C0.329,0.006 0.301,0.012 0.271,0.012ZM0.271,-0.056C0.292,-0.056 0.311,-0.061 0.328,-0.07C0.345,-0.079 0.36,-0.091 0.373,-0.108C0.385,-0.124 0.394,-0.143 0.401,-0.166C0.408,-0.189 0.411,-0.214 0.411,-0.242C0.411,-0.27 0.408,-0.296 0.401,-0.319C0.394,-0.341 0.385,-0.361 0.373,-0.378C0.36,-0.395 0.345,-0.408 0.328,-0.417C0.311,-0.426 0.292,-0.43 0.271,-0.43C0.25,-0.43 0.231,-0.426 0.214,-0.417C0.197,-0.408 0.182,-0.395 0.17,-0.378C0.157,-0.361 0.148,-0.341 0.141,-0.319C0.134,-0.296 0.131,-0.27 0.131,-0.242C0.131,-0.214 0.134,-0.189 0.141,-0.166C0.148,-0.143 0.157,-0.124 0.17,-0.108C0.182,-0.091 0.197,-0.079 0.214,-0.07C0.231,-0.061 0.25,-0.056 0.271,-0.056Z" style="fill:#fff;fill-rule:nonzero;"/>
                        </g>
                        <g transform="matrix(17.0631,0,0,13.6895,201.479,52.7098)">
                            <path d="M0.169,0.012C0.138,0.012 0.115,0.003 0.102,-0.016C0.089,-0.035 0.082,-0.062 0.082,-0.098L0.082,-0.712L0.164,-0.712L0.164,-0.092C0.164,-0.079 0.166,-0.069 0.171,-0.064C0.176,-0.059 0.181,-0.056 0.187,-0.056L0.195,-0.056C0.197,-0.056 0.2,-0.057 0.205,-0.058L0.216,0.004C0.211,0.007 0.204,0.009 0.197,0.01C0.19,0.011 0.18,0.012 0.169,0.012Z" style="fill:#fff;fill-rule:nonzero;"/>
                        </g>
                        <g transform="matrix(17.0631,0,0,13.6895,205.83,52.7098)">
                            <path d="M0.271,0.012C0.241,0.012 0.213,0.006 0.186,-0.005C0.159,-0.016 0.135,-0.033 0.114,-0.055C0.093,-0.076 0.077,-0.103 0.065,-0.135C0.052,-0.166 0.046,-0.202 0.046,-0.242C0.046,-0.283 0.052,-0.319 0.065,-0.351C0.077,-0.382 0.093,-0.409 0.114,-0.431C0.135,-0.453 0.159,-0.47 0.186,-0.481C0.213,-0.492 0.241,-0.498 0.271,-0.498C0.301,-0.498 0.329,-0.492 0.357,-0.481C0.384,-0.47 0.407,-0.453 0.428,-0.431C0.449,-0.409 0.465,-0.382 0.478,-0.351C0.49,-0.319 0.496,-0.283 0.496,-0.242C0.496,-0.202 0.49,-0.166 0.478,-0.135C0.465,-0.103 0.449,-0.076 0.428,-0.055C0.407,-0.033 0.384,-0.016 0.357,-0.005C0.329,0.006 0.301,0.012 0.271,0.012ZM0.271,-0.056C0.292,-0.056 0.311,-0.061 0.328,-0.07C0.345,-0.079 0.36,-0.091 0.373,-0.108C0.385,-0.124 0.394,-0.143 0.401,-0.166C0.408,-0.189 0.411,-0.214 0.411,-0.242C0.411,-0.27 0.408,-0.296 0.401,-0.319C0.394,-0.341 0.385,-0.361 0.373,-0.378C0.36,-0.395 0.345,-0.408 0.328,-0.417C0.311,-0.426 0.292,-0.43 0.271,-0.43C0.25,-0.43 0.231,-0.426 0.214,-0.417C0.197,-0.408 0.182,-0.395 0.17,-0.378C0.157,-0.361 0.148,-0.341 0.141,-0.319C0.134,-0.296 0.131,-0.27 0.131,-0.242C0.131,-0.214 0.134,-0.189 0.141,-0.166C0.148,-0.143 0.157,-0.124 0.17,-0.108C0.182,-0.091 0.197,-0.079 0.214,-0.07C0.231,-0.061 0.25,-0.056 0.271,-0.056Z" style="fill:#fff;fill-rule:nonzero;"/>
                        </g>
                        <g transform="matrix(17.0631,0,0,13.6895,215.079,52.7098)">
                            <path d="M0.246,0.224C0.216,0.224 0.189,0.221 0.164,0.216C0.139,0.21 0.118,0.201 0.101,0.19C0.083,0.179 0.069,0.165 0.06,0.149C0.05,0.133 0.045,0.114 0.045,0.093C0.045,0.072 0.051,0.053 0.064,0.034C0.077,0.015 0.094,-0.002 0.116,-0.017L0.116,-0.021C0.104,-0.028 0.094,-0.039 0.086,-0.052C0.077,-0.065 0.073,-0.081 0.073,-0.1C0.073,-0.121 0.079,-0.139 0.09,-0.154C0.101,-0.169 0.113,-0.181 0.126,-0.19L0.126,-0.194C0.11,-0.207 0.096,-0.225 0.083,-0.248C0.07,-0.27 0.063,-0.296 0.063,-0.325C0.063,-0.352 0.068,-0.376 0.078,-0.397C0.087,-0.418 0.1,-0.436 0.117,-0.452C0.134,-0.467 0.153,-0.478 0.176,-0.486C0.198,-0.494 0.221,-0.498 0.246,-0.498C0.259,-0.498 0.272,-0.497 0.284,-0.495C0.295,-0.492 0.306,-0.489 0.315,-0.486L0.484,-0.486L0.484,-0.423L0.384,-0.423C0.395,-0.412 0.405,-0.397 0.413,-0.38C0.42,-0.363 0.424,-0.344 0.424,-0.323C0.424,-0.297 0.419,-0.274 0.41,-0.253C0.401,-0.232 0.388,-0.214 0.372,-0.2C0.356,-0.185 0.337,-0.174 0.316,-0.166C0.294,-0.158 0.271,-0.154 0.246,-0.154C0.234,-0.154 0.222,-0.156 0.209,-0.159C0.196,-0.162 0.184,-0.166 0.173,-0.171C0.164,-0.164 0.157,-0.156 0.151,-0.147C0.145,-0.137 0.142,-0.126 0.142,-0.113C0.142,-0.098 0.148,-0.085 0.16,-0.075C0.172,-0.065 0.195,-0.06 0.228,-0.06L0.322,-0.06C0.379,-0.06 0.421,-0.051 0.45,-0.033C0.478,-0.014 0.492,0.015 0.492,0.056C0.492,0.079 0.486,0.1 0.475,0.121C0.464,0.141 0.447,0.159 0.426,0.174C0.405,0.189 0.379,0.202 0.349,0.211C0.318,0.22 0.284,0.224 0.246,0.224ZM0.246,-0.209C0.26,-0.209 0.273,-0.212 0.286,-0.217C0.298,-0.222 0.309,-0.23 0.319,-0.24C0.328,-0.25 0.336,-0.262 0.341,-0.277C0.346,-0.291 0.349,-0.307 0.349,-0.325C0.349,-0.361 0.339,-0.389 0.319,-0.409C0.299,-0.428 0.275,-0.438 0.246,-0.438C0.217,-0.438 0.193,-0.428 0.173,-0.409C0.153,-0.389 0.143,-0.361 0.143,-0.325C0.143,-0.307 0.146,-0.291 0.151,-0.277C0.156,-0.262 0.164,-0.25 0.174,-0.24C0.183,-0.23 0.194,-0.222 0.207,-0.217C0.219,-0.212 0.232,-0.209 0.246,-0.209ZM0.258,0.167C0.281,0.167 0.303,0.164 0.322,0.159C0.341,0.153 0.357,0.146 0.37,0.137C0.383,0.128 0.394,0.117 0.401,0.105C0.408,0.093 0.412,0.081 0.412,0.068C0.412,0.045 0.404,0.03 0.387,0.021C0.37,0.012 0.346,0.008 0.314,0.008L0.23,0.008C0.221,0.008 0.211,0.008 0.2,0.007C0.189,0.006 0.178,0.003 0.167,0C0.15,0.013 0.137,0.026 0.129,0.04C0.121,0.054 0.117,0.068 0.117,0.082C0.117,0.108 0.13,0.129 0.155,0.144C0.18,0.159 0.214,0.167 0.258,0.167Z" style="fill:#fff;fill-rule:nonzero;"/>
                        </g>
                        <g transform="matrix(17.0631,0,0,13.6895,223.934,52.7098)">
                            <path d="M0.09,0.209C0.079,0.209 0.068,0.208 0.059,0.207C0.05,0.205 0.041,0.202 0.033,0.199L0.049,0.134C0.054,0.135 0.06,0.137 0.067,0.139C0.074,0.14 0.08,0.141 0.086,0.141C0.114,0.141 0.137,0.131 0.155,0.112C0.172,0.092 0.186,0.067 0.196,0.037L0.207,0.001L0.012,-0.486L0.097,-0.486L0.196,-0.217C0.203,-0.196 0.211,-0.173 0.22,-0.15C0.228,-0.126 0.236,-0.103 0.243,-0.08L0.247,-0.08C0.254,-0.102 0.261,-0.125 0.268,-0.149C0.275,-0.173 0.281,-0.196 0.288,-0.217L0.375,-0.486L0.455,-0.486L0.272,0.04C0.263,0.064 0.254,0.086 0.243,0.107C0.232,0.128 0.22,0.146 0.205,0.161C0.19,0.175 0.174,0.187 0.155,0.196C0.136,0.205 0.115,0.209 0.09,0.209Z" style="fill:#fff;fill-rule:nonzero;"/>
                        </g>
                    </g>
                </g>
            </g>
        </g>
    </g>
</svg>
