<?xml version="1.0" encoding="UTF-8"?>
<svg width="437px" height="60px" viewBox="0 0 437 60" version="1.1" xmlns="http://www.w3.org/2000/svg" xmlns:xlink="http://www.w3.org/1999/xlink">
    <title>University of New Hampshire Logo</title>
    <defs>
        <polyline id="path-1" points="0.0334535947 0 370.015714 0 370.015714 59.9666667 0.0334535947 59.9666667"></polyline>
    </defs>
    <g id="Images" stroke="none" stroke-width="1" fill="none" fill-rule="evenodd">
        <g id="logo">
            <g>
                <g id="Group-3">
                    <g id="Fill-1-Clipped">
                        <mask id="mask-2" fill="white">
                            <use xlink:href="#path-1"></use>
                        </mask>
                        <g id="path-1"></g>
                        <path d="M48.3036452,0 L-1.55112582e-05,0 L-1.50196424e-14,29.625 C-0.00669071891,37.3822223 2.15106613,43.5788888 6.59649129,48.5666667 C10.1626445,52.5672221 15.4276827,57.4677778 24.5727803,59.8827778 L25.0143678,60 L25.4570704,59.8827778 C34.5993801,57.4677778 39.8655336,52.5672221 43.4316867,48.5666667 C47.8754393,43.5816666 50.0337537,37.3850001 50.0298508,29.6238889 L50.0298561,0 L48.3036452,0" id="Fill-1" fill="#FFFFFF" fill-rule="nonzero" mask="url(#mask-2)"></path>
                    </g>
                </g>
                <path d="M25.0143678,1.72 L1.72619154,1.72 L1.72620548,29.625 C1.72007232,36.9455555 3.73732408,42.7677778 7.88724247,47.4249999 C11.3318476,51.2888888 16.3638258,55.936111 25.0143678,58.2205556 C33.6643523,55.936111 38.6963304,51.2888888 42.1409357,47.4249999 C46.2925266,42.7677778 48.3075481,36.9455555 48.3036452,29.625 L48.3036508,1.72 L25.0143678,1.72" id="Fill-4" fill="#003591" fill-rule="nonzero"></path>
                <path d="M11.8732383,43.8944443 C8.58474992,40.2050001 7.05313286,35.671111 7.05703579,29.6272222 L7.05702835,7.03333332 L25.0143678,7.03333332 L25.0143678,52.6922222 C18.6141376,50.6900001 14.7898342,47.1655556 11.8732383,43.8944443" id="Fill-5" fill="#FFFFFF" fill-rule="nonzero"></path>
                <polyline id="Fill-6" fill="#003591" fill-rule="nonzero" points="11.437784 37.2105557 11.437784 13.8633333 16.691671 13.8633333 20.2494608 24.2044444 20.3135802 24.2044444 20.3135802 13.8633333 25.0143678 13.8633333 25.0143678 37.2105557 19.9221732 37.2105557 16.2021334 25.1138889 16.1363414 25.1138889 16.1363414 37.2105557 11.437784 37.2105557"></polyline>
                <polyline id="Fill-7" fill="#FFFFFF" fill-rule="nonzero" points="33.6526434 13.8633333 33.6526434 23.0061111 29.795444 23.0061111 29.795444 13.8633333 25.0143678 13.8633333 25.0143678 37.2105557 29.8785204 37.2105557 29.8785204 27.8133333 33.7351622 27.8133333 33.7351622 37.2105557 38.5903942 37.2105557 38.5903942 13.8633333 33.6526434 13.8633333"></polyline>
                <path d="M62.0274247,21.7205556 L68.4979075,21.7205556 L68.4979075,23.6672222 L66.5659625,23.6672222 L66.5659625,31.0227778 C66.5659625,32.1266667 66.54366,33.165 67.1290981,34.1172221 C67.6950214,35.0255555 68.6501215,35.415 69.7133881,35.415 C70.255894,35.415 70.6255563,35.3066667 71.1245723,35.0900001 C71.9280162,34.7661112 72.3846577,33.8572223 72.6227357,33.0788888 C72.818997,32.3644444 72.774392,31.5211111 72.774392,30.8066667 L72.774392,23.6672222 L70.8636343,23.6672222 L70.8636343,21.7205556 L77.0519918,21.7205556 L77.0519918,23.6672222 L75.4891513,23.6672222 L75.4891513,30.5472222 C75.4891513,31.715 75.5538284,33.0566667 75.0771145,34.1600001 C74.5981704,35.2422221 73.7952844,36.1505555 72.774392,36.7344445 C71.9503187,37.2322223 70.408108,37.47 69.4318203,37.47 C68.4767202,37.47 67.0867236,37.1888888 66.2609773,36.7344445 C65.3499244,36.2583333 64.6763921,35.4794443 64.1985633,34.5927778 C63.5685204,33.4677778 63.590823,32.1911111 63.590823,30.9361111 L63.590823,23.6672222 L62.0274247,23.6672222 L62.0274247,21.7205556" id="Fill-8" fill="#FFFFFF" fill-rule="nonzero"></path>
                <path d="M81.9339864,27.5838889 C82.6710804,26.1127778 83.7789521,25.42 85.4075845,25.42 C87.1873157,25.42 88.5343807,26.5233333 88.7947609,27.5838889 C88.9464175,28.1894445 88.9464175,28.6433333 88.9464175,29.1411111 L88.9464175,35.3716668 L90.3793464,35.3716668 L90.3793464,37.2099999 L84.7128649,37.2099999 L84.7128649,35.3716668 L86.0582571,35.3716668 L86.0582571,30.2011111 C86.0582571,29.6383333 86.0800019,29.1844444 85.9066005,28.6222222 C85.710897,27.93 85.1249018,27.4105556 84.3655052,27.4105556 C82.2590436,27.4105556 82.1285746,29.3788889 82.1285746,30.9794445 L82.1285746,35.3716668 L83.5180141,35.3716668 L83.5180141,37.2099999 L77.7205062,37.2099999 L77.7205062,35.3716668 L79.2415296,35.3716668 L79.2415296,27.5405556 L77.7205062,27.5405556 L77.7205062,25.7011111 L81.9339864,25.7011111 L81.9339864,27.5838889" id="Fill-9" fill="#FFFFFF" fill-rule="nonzero"></path>
                <path d="M93.3026327,21.31 L96.1896781,21.31 L96.1896781,23.9494444 L93.3026327,23.9494444 L93.3026327,21.31 Z M91.7604221,37.2099999 L91.7604221,35.3716668 L93.3026327,35.3716668 L93.3026327,27.5405556 L91.7604221,27.5405556 L91.7604221,25.7011111 L96.1896781,25.7011111 L96.1896781,35.3716668 L97.5361853,35.3716668 L97.5361853,37.2099999 L91.7604221,37.2099999 Z" id="Fill-10" fill="#FFFFFF" fill-rule="nonzero"></path>
                <polyline id="Fill-11" fill="#FFFFFF" fill-rule="nonzero" points="98.0792486 25.7011111 103.507095 25.7011111 103.507095 27.5405556 102.074165 27.5405556 104.223001 34.873889 104.245304 34.873889 106.67738 27.5405556 105.223264 27.5405556 105.223264 25.7011111 110.302635 25.7011111 110.302635 27.5405556 109.412769 27.5405556 106.004405 37.2099999 102.421525 37.2099999 98.9914167 27.5405556 98.0792486 27.5405556 98.0792486 25.7011111"></polyline>
                <path d="M118.863967,30.3738889 C118.841665,29.0761111 118.320904,27.2155556 116.670526,27.2155556 C114.846748,27.2155556 114.26131,28.8594444 114.130841,30.3738889 L118.863967,30.3738889 Z M114.065049,32.04 C114.043862,33.6844444 114.739139,35.5883334 116.715131,35.5883334 C117.865377,35.5883334 118.668263,34.8094444 118.863967,33.7055555 L121.621101,33.7055555 C121.425955,36.2372222 118.907457,37.47 116.562917,37.47 C115.824708,37.47 114.82556,37.2322223 114.152028,36.9294445 C113.392632,36.5833332 112.893615,36.1505555 112.394042,35.4794443 C111.481874,34.3111111 111.134514,32.7966667 111.134514,31.3477778 C111.134514,28.1894445 112.936547,25.42 116.432448,25.42 C117.973544,25.42 119.428775,25.8305556 120.492042,26.9555556 C121.425955,27.9511111 121.70808,29.5738889 121.773315,30.8722222 C121.794502,31.2183333 121.839106,31.5422222 121.794502,31.8672222 C121.794502,31.9316667 121.773315,31.975 121.773315,32.04 L114.065049,32.04 Z" id="Fill-12" fill="#FFFFFF" fill-rule="nonzero"></path>
                <path d="M127.171052,28.1461111 C127.627694,26.1338889 128.99483,25.3116667 131.01487,25.5066667 L131.01487,28.3194444 C130.688698,28.2327778 130.341338,28.1461111 129.993978,28.1461111 C128.930154,28.1461111 127.996241,28.795 127.627694,29.7683333 C127.345011,30.5472222 127.345011,31.6077778 127.345011,32.4072222 L127.345011,35.3716668 L129.191092,35.3716668 L129.191092,37.2099999 L122.938057,37.2099999 L122.938057,35.3716668 L124.45685,35.3716668 L124.45685,27.5405556 L122.938057,27.5405556 L122.938057,25.7011111 L127.171052,25.7011111 L127.171052,28.1461111" id="Fill-13" fill="#FFFFFF" fill-rule="nonzero"></path>
                <path d="M138.962329,29.4011111 C138.83186,28.1672222 138.376334,27.1511111 136.986894,27.1511111 C136.052982,27.1511111 135.184303,27.5616667 135.184303,28.6222222 C135.184303,28.9894444 135.29247,29.2277778 135.531663,29.5083333 C135.726809,29.6605556 135.966002,29.725 136.182893,29.8333333 C137.421233,30.1794444 139.744028,30.3527778 140.612149,31.4344444 C141.198144,32.1477778 141.41615,32.8188889 141.41615,33.7277779 C141.437337,34.3977778 141.133467,35.4361111 140.699128,36.0422222 C140.17781,36.7561111 138.918839,37.47 137.289649,37.47 C136.205195,37.47 135.032089,36.9727777 134.446094,36.0422222 L134.446094,37.2099999 L132.361935,37.2099999 L132.361935,33.2083332 L134.620052,33.2083332 C134.706474,34.636111 135.337074,35.6311111 136.877613,35.6311111 C137.681614,35.6311111 138.505688,35.068889 138.505688,34.2033333 C138.505688,33.7711111 138.376334,33.2516667 137.941995,33.0355556 C136.639535,32.4072222 135.053834,32.5594444 133.816051,31.7372222 C132.752784,31.0016667 132.339632,30.0066667 132.339632,28.73 C132.231466,27.7777778 132.796274,27.0855555 133.100144,26.6527778 C133.534483,26.0472222 134.967412,25.42 136.313362,25.42 C137.311952,25.42 138.441011,25.8527778 139.049308,26.6527778 L139.049308,25.7011111 L141.089978,25.7011111 L141.089978,29.4011111 L138.962329,29.4011111" id="Fill-14" fill="#FFFFFF" fill-rule="nonzero"></path>
                <path d="M144.423628,21.31 L147.310674,21.31 L147.310674,23.9494444 L144.423628,23.9494444 L144.423628,21.31 Z M142.881418,37.2099999 L142.881418,35.3716668 L144.423628,35.3716668 L144.423628,27.5405556 L142.881418,27.5405556 L142.881418,25.7011111 L147.310674,25.7011111 L147.310674,35.3716668 L148.656623,35.3716668 L148.656623,37.2099999 L142.881418,37.2099999 Z" id="Fill-15" fill="#FFFFFF" fill-rule="nonzero"></path>
                <path d="M157.171121,34.1816667 C157.171121,35.5449999 156.736782,36.7994443 155.303852,37.2533334 C155.065217,37.3400001 154.348195,37.47 154.110117,37.47 C153.588798,37.47 153.283813,37.3833333 152.785354,37.2533334 C151.786207,36.9505556 151.244259,36.2583333 151.025695,35.2855556 C150.918086,34.8094444 150.939274,33.7922222 150.939274,33.2727778 L150.939274,27.5405556 L149.224219,27.5405556 L149.224219,25.7011111 L150.939274,25.7011111 L150.939274,23.7327778 L153.827434,22.7588889 L153.827434,25.7011111 L156.715594,25.7011111 L156.715594,27.5405556 L153.827434,27.5405556 L153.827434,34.7438888 C153.827434,34.9599999 153.957345,35.3927779 154.174794,35.4794443 C155.499556,36.0205556 155.412577,34.1816667 155.390274,33.4027777 L157.171121,33.4027777 L157.171121,34.1816667" id="Fill-16" fill="#FFFFFF" fill-rule="nonzero"></path>
                <path d="M158.11507,25.7011111 L163.651082,25.7011111 L163.651082,27.5405556 L162.152361,27.5405556 L164.368104,33.6188888 L164.476271,33.9005555 L166.690899,27.5405556 L165.25797,27.5405556 L165.25797,25.7011111 L170.381945,25.7011111 L170.381945,27.5405556 L169.469777,27.5405556 L165.344391,37.9244443 C164.649672,39.7194445 163.976139,40.9966668 161.805001,40.9966668 C161.219563,40.9966668 160.633568,40.9966668 160.068202,40.8877777 L160.068202,38.8977778 C160.460167,38.9199999 160.849901,38.9627779 161.241308,38.9627779 C162.283945,38.9627779 162.499721,38.6166666 162.869383,37.7294443 L163.021039,37.3622222 L159.048425,27.5405556 L158.11507,27.5405556 L158.11507,25.7011111" id="Fill-17" fill="#FFFFFF" fill-rule="nonzero"></path>
                <path d="M179.025239,31.4344444 C179.025239,32.3861111 179.112218,33.2516667 179.568302,34.1172221 C179.980339,34.9388888 180.719663,35.566111 181.695951,35.566111 C182.738588,35.566111 183.454495,34.8305555 183.845902,33.943889 C184.171517,33.1861111 184.257939,32.1911111 184.257939,31.3911111 C184.257939,30.4394445 184.171517,29.6172222 183.737177,28.7516667 C183.325141,27.9511111 182.630421,27.3238889 181.652461,27.3238889 C179.568302,27.3238889 179.025239,29.8333333 179.025239,31.4344444 Z M177.332487,35.566111 C176.377387,34.3766667 176.007725,32.8622222 176.007725,31.3688889 C176.007725,29.7472222 176.398574,28.2761111 177.527633,27.0644445 C178.548525,25.9827778 180.089621,25.42 181.566039,25.42 C185.278273,25.42 187.275453,27.9944445 187.275453,31.4777778 C187.275453,34.8094444 185.213596,37.47 181.652461,37.47 C180.089621,37.47 178.309332,36.7777777 177.332487,35.566111 Z" id="Fill-18" fill="#FFFFFF" fill-rule="nonzero"></path>
                <path d="M188.170336,27.5405556 L188.170336,25.7011111 L189.864761,25.7011111 L189.864761,24.7061111 C189.864761,23.6461111 190.081094,22.5211111 191.036194,21.9155556 C191.970665,21.2877778 192.859973,21.0711111 193.989032,21.0711111 C194.532653,21.0711111 195.075716,21.2011111 195.618222,21.3533333 L195.618222,23.3 C195.227372,23.235 194.85771,23.1705555 194.467976,23.1705555 C193.880865,23.1705555 193.403594,23.3 192.991557,23.7538889 C192.730619,24.1 192.751806,24.9011111 192.751806,25.2683333 L192.751806,25.7011111 L194.728356,25.7011111 L194.728356,27.5405556 L192.751806,27.5405556 L192.751806,35.3716668 L194.662564,35.3716668 L194.662564,37.2099999 L188.301363,37.2099999 L188.301363,35.3716668 L189.864761,35.3716668 L189.864761,27.5405556 L188.170336,27.5405556" id="Fill-19" fill="#FFFFFF" fill-rule="nonzero"></path>
                <polyline id="Fill-20" fill="#FFFFFF" fill-rule="nonzero" points="201.699528 37.2099999 201.699528 35.2633332 203.502119 35.2633332 203.502119 23.6672222 201.699528 23.6672222 201.699528 21.7205556 207.474733 21.7205556 213.249939 33.9005555 213.271126 33.9005555 213.271126 23.6672222 211.447348 23.6672222 211.447348 21.7205556 217.571028 21.7205556 217.571028 23.6672222 215.876603 23.6672222 215.876603 37.2099999 212.0339 37.2099999 206.128784 24.7061111 206.107596 24.7061111 206.107596 35.2633332 207.822093 35.2633332 207.822093 37.2099999 201.699528 37.2099999"></polyline>
                <path d="M225.997431,30.3738889 C225.976244,29.0761111 225.454925,27.2155556 223.805105,27.2155556 C221.981327,27.2155556 221.394216,28.8594444 221.26542,30.3738889 L225.997431,30.3738889 Z M221.199628,32.04 C221.178441,33.6844444 221.87316,35.5883334 223.848595,35.5883334 C224.999399,35.5883334 225.802285,34.8094444 225.997431,33.7055555 L228.755122,33.7055555 C228.560534,36.2372222 226.042036,37.47 223.696939,37.47 C222.957615,37.47 221.96014,37.2322223 221.286607,36.9294445 C220.526096,36.5833332 220.027079,36.1505555 219.528063,35.4794443 C218.615338,34.3111111 218.267978,32.7966667 218.267978,31.3477778 C218.267978,28.1894445 220.070569,25.42 223.565912,25.42 C225.107565,25.42 226.562797,25.8305556 227.626064,26.9555556 C228.560534,27.9511111 228.842102,29.5738889 228.907894,30.8722222 C228.929081,31.2183333 228.972571,31.5422222 228.929081,31.8672222 C228.929081,31.9316667 228.907894,31.975 228.907894,32.04 L221.199628,32.04 Z" id="Fill-21" fill="#FFFFFF" fill-rule="nonzero"></path>
                <polyline id="Fill-22" fill="#FFFFFF" fill-rule="nonzero" points="235.140856 25.7011111 235.140856 27.5405556 233.59976 27.5405556 235.24958 34.9822223 235.271883 34.9822223 237.724589 25.7011111 241.242234 25.7011111 243.39107 34.9822223 243.413372 34.9822223 245.36762 27.5405556 243.891201 27.5405556 243.891201 25.7011111 249.015177 25.7011111 249.015177 27.5405556 247.951352 27.5405556 245.172474 37.2099999 241.524917 37.2099999 239.440758 28.5788889 237.073359 37.2099999 233.425802 37.2099999 230.646923 27.5405556 229.626588 27.5405556 229.626588 25.7011111 235.140856 25.7011111"></polyline>
                <polyline id="Fill-23" fill="#FFFFFF" fill-rule="nonzero" points="254.621442 37.2099999 254.621442 35.2633332 256.402288 35.2633332 256.402288 23.6672222 254.621442 23.6672222 254.621442 21.7205556 261.265326 21.7205556 261.265326 23.6672222 259.37687 23.6672222 259.37687 28.3833333 265.672279 28.3833333 265.672279 23.6672222 263.783824 23.6672222 263.783824 21.7205556 270.448895 21.7205556 270.448895 23.6672222 268.647419 23.6672222 268.647419 35.2633332 270.448895 35.2633332 270.448895 37.2099999 263.783824 37.2099999 263.783824 35.2633332 265.672279 35.2633332 265.672279 30.3305556 259.37687 30.3305556 259.37687 35.2633332 261.265326 35.2633332 261.265326 37.2099999 254.621442 37.2099999"></polyline>
                <path d="M277.596813,31.8883333 C276.120394,31.8883333 274.773329,32.2344444 274.773329,33.9872222 C274.773329,34.873889 275.359882,35.5883334 276.294353,35.5883334 C278.399699,35.5883334 278.89983,33.5755556 278.96395,31.8883333 L277.596813,31.8883333 Z M279.181398,35.3716668 C278.530168,36.8205557 277.140171,37.47 275.577331,37.47 C273.970443,37.47 272.407045,36.5611111 272.146665,35.3716668 C271.907472,34.6138889 271.886284,34.2244444 271.886284,33.8783334 C271.886284,32.9055555 272.277134,31.9316667 273.015343,31.2827778 C273.579594,30.7633333 274.882611,30.3094444 275.642008,30.2872222 C276.185071,30.2661111 276.770509,30.1794444 277.31413,30.1794444 C277.834891,30.1794444 278.35621,30.2438889 278.877528,30.2661111 C279.028627,28.8816667 278.834038,27.1511111 277.031447,27.1511111 C275.773035,27.1511111 275.165294,28.0161111 275.186481,29.2277778 L272.320623,29.2277778 C272.385858,26.4155556 274.491762,25.42 277.031447,25.42 C278.834038,25.42 280.527348,25.8961111 281.309047,27.67 C281.483005,28.0594444 281.525938,28.2972222 281.59173,28.7516667 C281.656407,29.2488889 281.678709,29.725 281.678709,30.2227778 L281.678709,35.3927779 L283.176315,35.3927779 L283.176315,37.2099999 L279.181398,37.2099999 L279.181398,35.3716668 Z" id="Fill-24" fill="#FFFFFF" fill-rule="nonzero"></path>
                <path d="M288.69337,27.5838889 C289.43158,26.1127778 290.64706,25.42 292.318625,25.42 C293.860278,25.42 294.989337,26.0038889 295.531843,27.5838889 C296.161885,26.1127778 297.400226,25.42 298.897832,25.42 C300.547651,25.42 301.7202,26.1772222 302.284451,27.5838889 C302.566576,28.2972222 302.479597,28.8161111 302.479597,29.3788889 L302.479597,35.3716668 L303.891338,35.3716668 L303.891338,37.2099999 L298.224299,37.2099999 L298.224299,35.3716668 L299.592551,35.3716668 L299.592551,30.2438889 C299.592551,29.0761111 299.43978,27.5405556 297.87694,27.5405556 C297.030563,27.5405556 296.422266,27.93 296.053161,28.7083333 C295.684056,29.4655556 295.684056,30.1144444 295.684056,30.9361111 L295.684056,35.3716668 L297.030563,35.3716668 L297.030563,37.2099999 L291.472249,37.2099999 L291.472249,35.3716668 L292.797011,35.3716668 L292.797011,30.05 C292.797011,29.4011111 292.797011,28.9027778 292.514328,28.2972222 C292.297437,27.8433333 291.732629,27.5405556 291.233613,27.5405556 C290.018133,27.5405556 289.365788,28.2761111 289.04073,29.3577778 C288.889074,29.92 288.889074,30.4605555 288.889074,31.045 L288.889074,35.3716668 L290.278513,35.3716668 L290.278513,37.2099999 L284.481005,37.2099999 L284.481005,35.3716668 L286.000913,35.3716668 L286.000913,27.5405556 L284.481005,27.5405556 L284.481005,25.7011111 L288.69337,25.7011111 L288.69337,27.5838889" id="Fill-25" fill="#FFFFFF" fill-rule="nonzero"></path>
                <path d="M309.392224,28.6866667 C308.892093,29.6383333 308.697505,30.5688889 308.697505,31.4988889 C308.697505,33.1216668 309.326432,35.5227778 311.368216,35.5227778 C313.452933,35.5227778 313.951392,33.2516667 313.951392,31.6077778 C313.951392,29.9633333 313.626334,27.3016667 311.455196,27.3016667 C310.521283,27.3016667 309.739584,27.9511111 309.392224,28.6866667 Z M308.697505,27.6477778 C309.499833,26.0905556 310.738174,25.42 312.105311,25.42 C313.864412,25.42 315.036961,26.1338889 316.07904,27.6477778 C316.534567,28.3194444 316.926531,29.7472222 316.926531,31.3044444 C316.926531,33.0355556 316.75313,34.1172221 315.839847,35.6094445 C315.102753,36.8205557 313.539355,37.47 312.149916,37.47 C310.868643,37.47 309.739584,36.9072221 308.870906,35.4794443 L308.870906,38.8766667 L310.500096,38.8766667 L310.500096,40.7150001 L304.462837,40.7150001 L304.462837,38.8766667 L305.983861,38.8766667 L305.983861,27.5405556 L304.462837,27.5405556 L304.462837,25.7011111 L308.697505,25.7011111 L308.697505,27.6477778 Z" id="Fill-26" fill="#FFFFFF" fill-rule="nonzero"></path>
                <path d="M325.316693,29.4011111 C325.185109,28.1672222 324.729582,27.1511111 323.340143,27.1511111 C322.40623,27.1511111 321.537552,27.5616667 321.537552,28.6222222 C321.537552,28.9894444 321.646834,29.2277778 321.884912,29.5083333 C322.080615,29.6605556 322.319251,29.725 322.537257,29.8333333 C323.774482,30.1794444 326.097834,30.3527778 326.966513,31.4344444 C327.552508,32.1477778 327.769399,32.8188889 327.769399,33.7277779 C327.790586,34.3977778 327.487831,35.4361111 327.053492,36.0422222 C326.532173,36.7561111 325.272088,37.47 323.644013,37.47 C322.558444,37.47 321.385896,36.9727777 320.800457,36.0422222 L320.800457,37.2099999 L318.716299,37.2099999 L318.716299,33.2083332 L320.973859,33.2083332 C321.060838,34.636111 321.690323,35.6311111 323.231976,35.6311111 C324.034863,35.6311111 324.860051,35.068889 324.860051,34.2033333 C324.860051,33.7711111 324.729582,33.2516667 324.295243,33.0355556 C322.992783,32.4072222 321.408198,32.5594444 320.170415,31.7372222 C319.106033,31.0016667 318.693996,30.0066667 318.693996,28.73 C318.584715,27.7777778 319.15008,27.0855555 319.453393,26.6527778 C319.887174,26.0472222 321.321219,25.42 322.666611,25.42 C323.666316,25.42 324.795375,25.8527778 325.403115,26.6527778 L325.403115,25.7011111 L327.443226,25.7011111 L327.443226,29.4011111 L325.316693,29.4011111" id="Fill-27" fill="#FFFFFF" fill-rule="nonzero"></path>
                <path d="M329.113676,37.2099999 L329.113676,35.3716668 L330.590093,35.3716668 L330.590093,23.3 L329.113676,23.3 L329.113676,21.4605555 L333.478256,21.4605555 L333.478256,27.1944444 C334.281142,25.9172222 335.257427,25.42 336.778451,25.42 C337.733552,25.42 338.883798,25.7011111 339.535029,26.4366667 C340.229746,27.2155556 340.339029,28.1672222 340.339029,29.1622222 L340.339029,35.3716668 L341.793145,35.3716668 L341.793145,37.2099999 L336.039129,37.2099999 L336.039129,35.3716668 L337.450869,35.3716668 L337.450869,30.2011111 C337.450869,29.7683333 337.407379,29.3144445 337.341587,28.8816667 C337.276912,28.0594444 336.604493,27.3883333 335.75756,27.3883333 C334.714922,27.3883333 334.128369,27.93 333.781009,28.8594444 C333.455954,29.6605556 333.478256,30.4605555 333.478256,31.3044444 L333.478256,35.3716668 L334.888882,35.3716668 L334.888882,37.2099999 L329.113676,37.2099999" id="Fill-28" fill="#FFFFFF" fill-rule="nonzero"></path>
                <path d="M344.705838,21.31 L347.592884,21.31 L347.592884,23.9494444 L344.705838,23.9494444 L344.705838,21.31 Z M343.163627,37.2099999 L343.163627,35.3716668 L344.705838,35.3716668 L344.705838,27.5405556 L343.163627,27.5405556 L343.163627,25.7011111 L347.592884,25.7011111 L347.592884,35.3716668 L348.938835,35.3716668 L348.938835,37.2099999 L343.163627,37.2099999 Z" id="Fill-29" fill="#FFFFFF" fill-rule="nonzero"></path>
                <path d="M354.54956,28.1461111 C355.0062,26.1338889 356.373336,25.3116667 358.393378,25.5066667 L358.393378,28.3194444 C358.067763,28.2327778 357.720402,28.1461111 357.373042,28.1461111 C356.308662,28.1461111 355.375863,28.795 355.0062,29.7683333 C354.723518,30.5472222 354.723518,31.6077778 354.723518,32.4072222 L354.723518,35.3716668 L356.569599,35.3716668 L356.569599,37.2099999 L350.316564,37.2099999 L350.316564,35.3716668 L351.835915,35.3716668 L351.835915,27.5405556 L350.316564,27.5405556 L350.316564,25.7011111 L354.54956,25.7011111 L354.54956,28.1461111" id="Fill-30" fill="#FFFFFF" fill-rule="nonzero"></path>
                <path d="M367.065663,30.3738889 C367.044478,29.0761111 366.523714,27.2155556 364.873338,27.2155556 C363.049559,27.2155556 362.463007,28.8594444 362.333654,30.3738889 L367.065663,30.3738889 Z M362.267862,32.04 C362.246674,33.6844444 362.941395,35.5883334 364.916829,35.5883334 C366.068189,35.5883334 366.871075,34.8094444 367.065663,33.7055555 L369.823912,33.7055555 C369.628767,36.2372222 367.110267,37.47 364.76517,37.47 C364.025848,37.47 363.028371,37.2322223 362.354842,36.9294445 C361.594329,36.5833332 361.095313,36.1505555 360.596855,35.4794443 C359.683569,34.3111111 359.336212,32.7966667 359.336212,31.3477778 C359.336212,28.1894445 361.138803,25.42 364.634146,25.42 C366.175797,25.42 367.631031,25.8305556 368.694854,26.9555556 C369.628767,27.9511111 369.910335,29.5738889 369.976127,30.8722222 C369.997315,31.2183333 370.040802,31.5422222 369.997315,31.8672222 C369.997315,31.9316667 369.976127,31.975 369.976127,32.04 L362.267862,32.04 Z" id="Fill-32" fill="#FFFFFF" fill-rule="nonzero"></path>
            </g>
        </g>
    </g>
</svg>
